<?xml version="1.0" standalone="no"?>
<!DOCTYPE svg PUBLIC "-//W3C//DTD SVG 20010904//EN"
 "http://www.w3.org/TR/2001/REC-SVG-20010904/DTD/svg10.dtd">
<svg version="1.0" xmlns="http://www.w3.org/2000/svg"
 width="500.000000pt" height="500.000000pt" viewBox="0 0 500.000000 500.000000"
 preserveAspectRatio="xMidYMid meet">
<metadata>
Created by potrace 1.11, written by Peter Selinger 2001-2013
</metadata>
<g transform="translate(0.000000,500.000000) scale(0.100000,-0.100000)"
fill="#000000" stroke="none">
<path d="M0 2500 l0 -2500 2500 0 2500 0 0 2500 0 2500 -2500 0 -2500 0 0
-2500z m1200 360 c151 -407 277 -740 280 -740 3 0 129 332 281 738 l276 737
221 3 222 2 0 -1095 0 -1095 -145 0 -145 0 -2 954 -3 955 -279 -745 -278 -744
-148 0 -148 0 -14 38 c-8 20 -134 355 -279 744 l-264 707 -3 -954 -2 -955
-145 0 -145 0 0 1095 0 1095 223 0 222 0 275 -740z m3430 615 l0 -125 -390 0
-390 0 0 -970 0 -970 -150 0 -150 0 0 970 0 970 -390 0 -390 0 0 125 0 125
930 0 930 0 0 -125z"/>
</g>
</svg>
